<mxfile host="app.diagrams.net" modified="2021-09-27T05:11:28.658Z" agent="5.0 (Windows NT 10.0; Win64; x64) AppleWebKit/537.36 (KHTML, like Gecko) Chrome/94.0.4606.61 Safari/537.36" etag="8YmjBdffI2hEtOBDHyjQ" version="15.3.4" type="github">
  <diagram id="323JhVJnHS0hn5SEiKf3" name="Page-1">
    <mxGraphModel dx="2249" dy="705" grid="1" gridSize="10" guides="1" tooltips="1" connect="1" arrows="1" fold="1" page="1" pageScale="1" pageWidth="827" pageHeight="1169" math="0" shadow="0">
      <root>
        <mxCell id="0" />
        <mxCell id="1" parent="0" />
        <mxCell id="a6YIf-C3EolygRjesOT9-3" value="" style="edgeStyle=none;curved=1;rounded=0;orthogonalLoop=1;jettySize=auto;html=1;endArrow=open;startSize=14;endSize=14;sourcePerimeterSpacing=8;targetPerimeterSpacing=8;" edge="1" parent="1" source="a6YIf-C3EolygRjesOT9-1" target="a6YIf-C3EolygRjesOT9-2">
          <mxGeometry relative="1" as="geometry" />
        </mxCell>
        <mxCell id="a6YIf-C3EolygRjesOT9-1" value="&lt;font style=&quot;font-size: 19px&quot;&gt;시작&lt;/font&gt;" style="rounded=1;whiteSpace=wrap;html=1;hachureGap=4;pointerEvents=0;arcSize=88;" vertex="1" parent="1">
          <mxGeometry x="100" y="40" width="130" height="30" as="geometry" />
        </mxCell>
        <mxCell id="a6YIf-C3EolygRjesOT9-5" value="" style="edgeStyle=none;curved=1;rounded=0;orthogonalLoop=1;jettySize=auto;html=1;endArrow=open;startSize=14;endSize=14;sourcePerimeterSpacing=8;targetPerimeterSpacing=8;" edge="1" parent="1" source="a6YIf-C3EolygRjesOT9-2" target="a6YIf-C3EolygRjesOT9-4">
          <mxGeometry relative="1" as="geometry" />
        </mxCell>
        <mxCell id="a6YIf-C3EolygRjesOT9-2" value="&lt;font style=&quot;font-size: 20px&quot;&gt;int type,num&lt;/font&gt;" style="shape=hexagon;perimeter=hexagonPerimeter2;whiteSpace=wrap;html=1;fixedSize=1;rounded=1;arcSize=0;hachureGap=4;size=30;" vertex="1" parent="1">
          <mxGeometry x="80" y="100" width="170" height="30" as="geometry" />
        </mxCell>
        <mxCell id="a6YIf-C3EolygRjesOT9-7" value="" style="edgeStyle=none;curved=1;rounded=0;orthogonalLoop=1;jettySize=auto;html=1;endArrow=open;startSize=14;endSize=14;sourcePerimeterSpacing=8;targetPerimeterSpacing=8;" edge="1" parent="1" source="a6YIf-C3EolygRjesOT9-4" target="a6YIf-C3EolygRjesOT9-6">
          <mxGeometry relative="1" as="geometry" />
        </mxCell>
        <mxCell id="a6YIf-C3EolygRjesOT9-4" value="&lt;font style=&quot;font-size: 18px&quot;&gt;num 입력&lt;/font&gt;" style="shape=parallelogram;perimeter=parallelogramPerimeter;whiteSpace=wrap;html=1;fixedSize=1;rounded=1;arcSize=0;hachureGap=4;" vertex="1" parent="1">
          <mxGeometry x="80" y="180" width="170" height="35" as="geometry" />
        </mxCell>
        <mxCell id="a6YIf-C3EolygRjesOT9-9" value="" style="edgeStyle=orthogonalEdgeStyle;rounded=0;orthogonalLoop=1;jettySize=auto;html=1;endArrow=open;startSize=14;endSize=14;sourcePerimeterSpacing=8;targetPerimeterSpacing=8;exitX=0;exitY=0.5;exitDx=0;exitDy=0;" edge="1" parent="1" source="a6YIf-C3EolygRjesOT9-6" target="a6YIf-C3EolygRjesOT9-8">
          <mxGeometry relative="1" as="geometry" />
        </mxCell>
        <mxCell id="a6YIf-C3EolygRjesOT9-13" value="" style="edgeStyle=orthogonalEdgeStyle;rounded=0;orthogonalLoop=1;jettySize=auto;html=1;endArrow=open;startSize=14;endSize=14;sourcePerimeterSpacing=8;targetPerimeterSpacing=8;" edge="1" parent="1" source="a6YIf-C3EolygRjesOT9-6" target="a6YIf-C3EolygRjesOT9-12">
          <mxGeometry relative="1" as="geometry" />
        </mxCell>
        <mxCell id="a6YIf-C3EolygRjesOT9-6" value="&lt;font style=&quot;font-size: 16px&quot;&gt;num&amp;gt;=10&lt;/font&gt;" style="rhombus;whiteSpace=wrap;html=1;rounded=1;arcSize=0;hachureGap=4;" vertex="1" parent="1">
          <mxGeometry x="87.5" y="250" width="155" height="50" as="geometry" />
        </mxCell>
        <mxCell id="a6YIf-C3EolygRjesOT9-36" style="edgeStyle=orthogonalEdgeStyle;rounded=0;orthogonalLoop=1;jettySize=auto;html=1;entryX=0.5;entryY=0;entryDx=0;entryDy=0;endArrow=open;startSize=14;endSize=14;sourcePerimeterSpacing=8;targetPerimeterSpacing=8;" edge="1" parent="1" source="a6YIf-C3EolygRjesOT9-8" target="a6YIf-C3EolygRjesOT9-35">
          <mxGeometry relative="1" as="geometry">
            <Array as="points">
              <mxPoint x="28" y="680" />
              <mxPoint x="165" y="680" />
            </Array>
          </mxGeometry>
        </mxCell>
        <mxCell id="a6YIf-C3EolygRjesOT9-8" value="&lt;font style=&quot;font-size: 17px&quot;&gt;num*1800&lt;/font&gt;" style="shape=document;whiteSpace=wrap;html=1;boundedLbl=1;rounded=1;arcSize=0;hachureGap=4;" vertex="1" parent="1">
          <mxGeometry x="-32.5" y="330" width="120" height="50" as="geometry" />
        </mxCell>
        <mxCell id="a6YIf-C3EolygRjesOT9-11" value="&lt;font style=&quot;font-size: 19px&quot;&gt;예&lt;/font&gt;" style="text;html=1;strokeColor=none;fillColor=none;align=center;verticalAlign=middle;whiteSpace=wrap;rounded=0;hachureGap=4;pointerEvents=0;" vertex="1" parent="1">
          <mxGeometry x="-10" y="250" width="40" height="20" as="geometry" />
        </mxCell>
        <mxCell id="a6YIf-C3EolygRjesOT9-15" value="" style="edgeStyle=orthogonalEdgeStyle;rounded=0;orthogonalLoop=1;jettySize=auto;html=1;endArrow=open;startSize=14;endSize=14;sourcePerimeterSpacing=8;targetPerimeterSpacing=8;" edge="1" parent="1" source="a6YIf-C3EolygRjesOT9-12" target="a6YIf-C3EolygRjesOT9-14">
          <mxGeometry relative="1" as="geometry" />
        </mxCell>
        <mxCell id="a6YIf-C3EolygRjesOT9-12" value="&lt;font style=&quot;font-size: 18px&quot;&gt;type입력&lt;/font&gt;" style="shape=parallelogram;perimeter=parallelogramPerimeter;whiteSpace=wrap;html=1;fixedSize=1;rounded=1;arcSize=0;hachureGap=4;" vertex="1" parent="1">
          <mxGeometry x="294" y="310" width="120" height="40" as="geometry" />
        </mxCell>
        <mxCell id="a6YIf-C3EolygRjesOT9-17" value="" style="edgeStyle=orthogonalEdgeStyle;rounded=0;orthogonalLoop=1;jettySize=auto;html=1;endArrow=open;startSize=14;endSize=14;sourcePerimeterSpacing=8;targetPerimeterSpacing=8;" edge="1" parent="1" source="a6YIf-C3EolygRjesOT9-14" target="a6YIf-C3EolygRjesOT9-16">
          <mxGeometry relative="1" as="geometry" />
        </mxCell>
        <mxCell id="a6YIf-C3EolygRjesOT9-21" value="" style="edgeStyle=orthogonalEdgeStyle;rounded=0;orthogonalLoop=1;jettySize=auto;html=1;endArrow=open;startSize=14;endSize=14;sourcePerimeterSpacing=8;targetPerimeterSpacing=8;exitX=0.5;exitY=1;exitDx=0;exitDy=0;entryX=0.5;entryY=0;entryDx=0;entryDy=0;" edge="1" parent="1" source="a6YIf-C3EolygRjesOT9-14" target="a6YIf-C3EolygRjesOT9-20">
          <mxGeometry relative="1" as="geometry">
            <mxPoint x="344" y="438" as="sourcePoint" />
            <Array as="points">
              <mxPoint x="354" y="470" />
              <mxPoint x="354" y="470" />
            </Array>
          </mxGeometry>
        </mxCell>
        <mxCell id="a6YIf-C3EolygRjesOT9-14" value="&lt;font style=&quot;font-size: 16px&quot;&gt;type=1&lt;/font&gt;" style="rhombus;whiteSpace=wrap;html=1;rounded=1;arcSize=0;hachureGap=4;" vertex="1" parent="1">
          <mxGeometry x="271" y="390" width="166" height="40" as="geometry" />
        </mxCell>
        <mxCell id="a6YIf-C3EolygRjesOT9-37" style="edgeStyle=orthogonalEdgeStyle;rounded=0;orthogonalLoop=1;jettySize=auto;html=1;entryX=0.5;entryY=0;entryDx=0;entryDy=0;endArrow=open;startSize=14;endSize=14;sourcePerimeterSpacing=8;targetPerimeterSpacing=8;" edge="1" parent="1" source="a6YIf-C3EolygRjesOT9-16" target="a6YIf-C3EolygRjesOT9-35">
          <mxGeometry relative="1" as="geometry">
            <Array as="points">
              <mxPoint x="165" y="500" />
              <mxPoint x="165" y="500" />
            </Array>
          </mxGeometry>
        </mxCell>
        <mxCell id="a6YIf-C3EolygRjesOT9-16" value="&lt;font style=&quot;font-size: 16px&quot;&gt;num*2000&lt;/font&gt;" style="shape=document;whiteSpace=wrap;html=1;boundedLbl=1;rounded=1;arcSize=0;hachureGap=4;" vertex="1" parent="1">
          <mxGeometry x="110" y="440" width="120" height="40" as="geometry" />
        </mxCell>
        <mxCell id="a6YIf-C3EolygRjesOT9-18" value="&lt;font style=&quot;font-size: 16px&quot;&gt;아니오&lt;/font&gt;" style="text;html=1;strokeColor=none;fillColor=none;align=center;verticalAlign=middle;whiteSpace=wrap;rounded=0;hachureGap=4;pointerEvents=0;" vertex="1" parent="1">
          <mxGeometry x="330" y="250" width="70" height="20" as="geometry" />
        </mxCell>
        <mxCell id="a6YIf-C3EolygRjesOT9-19" value="&lt;font style=&quot;font-size: 19px&quot;&gt;예&lt;/font&gt;" style="text;html=1;strokeColor=none;fillColor=none;align=center;verticalAlign=middle;whiteSpace=wrap;rounded=0;hachureGap=4;pointerEvents=0;" vertex="1" parent="1">
          <mxGeometry x="240" y="390" width="40" height="20" as="geometry" />
        </mxCell>
        <mxCell id="a6YIf-C3EolygRjesOT9-30" value="" style="edgeStyle=orthogonalEdgeStyle;rounded=0;orthogonalLoop=1;jettySize=auto;html=1;endArrow=open;startSize=14;endSize=14;sourcePerimeterSpacing=8;targetPerimeterSpacing=8;" edge="1" parent="1" source="a6YIf-C3EolygRjesOT9-20" target="a6YIf-C3EolygRjesOT9-28">
          <mxGeometry relative="1" as="geometry" />
        </mxCell>
        <mxCell id="a6YIf-C3EolygRjesOT9-31" value="" style="edgeStyle=orthogonalEdgeStyle;rounded=0;orthogonalLoop=1;jettySize=auto;html=1;endArrow=open;startSize=14;endSize=14;sourcePerimeterSpacing=8;targetPerimeterSpacing=8;" edge="1" parent="1" source="a6YIf-C3EolygRjesOT9-20" target="a6YIf-C3EolygRjesOT9-29">
          <mxGeometry relative="1" as="geometry" />
        </mxCell>
        <mxCell id="a6YIf-C3EolygRjesOT9-20" value="&lt;font style=&quot;font-size: 16px&quot;&gt;type=2&lt;/font&gt;" style="rhombus;whiteSpace=wrap;html=1;rounded=1;arcSize=0;hachureGap=4;" vertex="1" parent="1">
          <mxGeometry x="314" y="485" width="80" height="50" as="geometry" />
        </mxCell>
        <mxCell id="a6YIf-C3EolygRjesOT9-22" value="&lt;font style=&quot;font-size: 16px&quot;&gt;아니오&lt;/font&gt;" style="text;html=1;strokeColor=none;fillColor=none;align=center;verticalAlign=middle;whiteSpace=wrap;rounded=0;hachureGap=4;pointerEvents=0;" vertex="1" parent="1">
          <mxGeometry x="344" y="430" width="70" height="20" as="geometry" />
        </mxCell>
        <mxCell id="a6YIf-C3EolygRjesOT9-38" style="edgeStyle=orthogonalEdgeStyle;rounded=0;orthogonalLoop=1;jettySize=auto;html=1;entryX=0.5;entryY=0;entryDx=0;entryDy=0;endArrow=open;startSize=14;endSize=14;sourcePerimeterSpacing=8;targetPerimeterSpacing=8;exitX=0.525;exitY=0.8;exitDx=0;exitDy=0;exitPerimeter=0;" edge="1" parent="1" source="a6YIf-C3EolygRjesOT9-28" target="a6YIf-C3EolygRjesOT9-35">
          <mxGeometry relative="1" as="geometry">
            <Array as="points">
              <mxPoint x="233" y="650" />
              <mxPoint x="165" y="650" />
            </Array>
          </mxGeometry>
        </mxCell>
        <mxCell id="a6YIf-C3EolygRjesOT9-28" value="&lt;font style=&quot;font-size: 16px&quot;&gt;num*1800&lt;/font&gt;" style="shape=document;whiteSpace=wrap;html=1;boundedLbl=1;rounded=1;hachureGap=4;pointerEvents=0;size=0.4;" vertex="1" parent="1">
          <mxGeometry x="174" y="550" width="120" height="50" as="geometry" />
        </mxCell>
        <mxCell id="a6YIf-C3EolygRjesOT9-39" style="edgeStyle=orthogonalEdgeStyle;rounded=0;orthogonalLoop=1;jettySize=auto;html=1;entryX=0.5;entryY=0;entryDx=0;entryDy=0;endArrow=open;startSize=14;endSize=14;sourcePerimeterSpacing=8;targetPerimeterSpacing=8;exitX=0.492;exitY=0.85;exitDx=0;exitDy=0;exitPerimeter=0;" edge="1" parent="1" source="a6YIf-C3EolygRjesOT9-29" target="a6YIf-C3EolygRjesOT9-35">
          <mxGeometry relative="1" as="geometry">
            <Array as="points">
              <mxPoint x="460" y="650" />
              <mxPoint x="165" y="650" />
            </Array>
          </mxGeometry>
        </mxCell>
        <mxCell id="a6YIf-C3EolygRjesOT9-29" value="잘못입력했습니다." style="shape=document;whiteSpace=wrap;html=1;boundedLbl=1;rounded=1;hachureGap=4;pointerEvents=0;" vertex="1" parent="1">
          <mxGeometry x="400" y="550" width="120" height="40" as="geometry" />
        </mxCell>
        <mxCell id="a6YIf-C3EolygRjesOT9-32" value="&lt;font style=&quot;font-size: 16px&quot;&gt;아니오&lt;/font&gt;" style="text;html=1;strokeColor=none;fillColor=none;align=center;verticalAlign=middle;whiteSpace=wrap;rounded=0;hachureGap=4;pointerEvents=0;" vertex="1" parent="1">
          <mxGeometry x="394" y="490" width="70" height="20" as="geometry" />
        </mxCell>
        <mxCell id="a6YIf-C3EolygRjesOT9-33" value="&lt;font style=&quot;font-size: 19px&quot;&gt;예&lt;/font&gt;" style="text;html=1;strokeColor=none;fillColor=none;align=center;verticalAlign=middle;whiteSpace=wrap;rounded=0;hachureGap=4;pointerEvents=0;" vertex="1" parent="1">
          <mxGeometry x="271" y="490" width="40" height="20" as="geometry" />
        </mxCell>
        <mxCell id="a6YIf-C3EolygRjesOT9-35" value="&lt;font style=&quot;font-size: 19px&quot;&gt;종료&lt;/font&gt;" style="rounded=1;whiteSpace=wrap;html=1;hachureGap=4;pointerEvents=0;arcSize=88;" vertex="1" parent="1">
          <mxGeometry x="100" y="720" width="130" height="30" as="geometry" />
        </mxCell>
      </root>
    </mxGraphModel>
  </diagram>
</mxfile>
